<?xml version="1.0" encoding="UTF-8" standalone="no"?>
<!-- Created with Inkscape (http://www.inkscape.org/) -->

<svg
   xmlns:dc="http://purl.org/dc/elements/1.1/"
   xmlns:cc="http://creativecommons.org/ns#"
   xmlns:rdf="http://www.w3.org/1999/02/22-rdf-syntax-ns#"
   xmlns:svg="http://www.w3.org/2000/svg"
   xmlns="http://www.w3.org/2000/svg"
   xmlns:sodipodi="http://sodipodi.sourceforge.net/DTD/sodipodi-0.dtd"
   xmlns:inkscape="http://www.inkscape.org/namespaces/inkscape"
   width="119.41528mm"
   height="114.66351mm"
   viewBox="0 0 119.41528 114.66351"
   version="1.1"
   id="svg8"
   inkscape:version="0.92.1 r15371"
   sodipodi:docname="msr2017.svg">
  <defs
     id="defs2">
    <pattern
       id="WMFhbasepattern"
       patternUnits="userSpaceOnUse"
       width="6"
       height="6"
       x="0"
       y="0" />
  </defs>
  <sodipodi:namedview
     id="base"
     pagecolor="#ffffff"
     bordercolor="#666666"
     borderopacity="1.0"
     inkscape:pageopacity="0.0"
     inkscape:pageshadow="2"
     inkscape:zoom="0.68595679"
     inkscape:cx="229.57217"
     inkscape:cy="-126.22339"
     inkscape:document-units="mm"
     inkscape:current-layer="layer1"
     showgrid="false"
     inkscape:window-width="1920"
     inkscape:window-height="1009"
     inkscape:window-x="0"
     inkscape:window-y="34"
     inkscape:window-maximized="1" />
  <metadata
     id="metadata5">
    <rdf:RDF>
      <cc:Work
         rdf:about="">
        <dc:format>image/svg+xml</dc:format>
        <dc:type
           rdf:resource="http://purl.org/dc/dcmitype/StillImage" />
        <dc:title></dc:title>
      </cc:Work>
    </rdf:RDF>
  </metadata>
  <g
     inkscape:label="Layer 1"
     inkscape:groupmode="layer"
     id="layer1"
     transform="translate(-44.25903,-0.43988022)">
    <g
       id="g4037"
       transform="translate(44.25903,0.43988022)">
      <path
         style="fill:#ffffff;fill-opacity:1;fill-rule:evenodd;stroke:none"
         d="m 0.70555556,84.225836 15.69861144,-2.381392 97.366663,1.763889 5.64445,2.998611 -6.43834,1.940278 4.67445,2.381391 -5.99722,1.058334 -5.38001,2.20472 H 0.61736111 L 5.55625,90.223058 0,88.9 1.2347222,86.430556 Z"
         id="path7"
         inkscape:connector-curvature="0" />
      <path
         style="fill:#ffddb9;fill-opacity:1;fill-rule:evenodd;stroke:none"
         d="m 2.0284722,71.701942 4.8506945,-4.586111 9.7895833,2.381391 1.5875,-0.705555 6.085417,1.5875 L 25.4,73.025 l 3.527778,0.793609 9.701389,-1.322776 11.024446,0.793891 14.111111,-0.617502 36.336116,-1.5875 11.55333,2.028331 -9.96612,-0.61722 14.02306,3.351389 -16.051388,0.176389 15.698608,1.763889 h -13.93472 l 10.58333,2.645833 4.85056,2.822223 -8.37833,1.5875 -6.43834,-0.264443 L 92.075,83.52028 32.190831,86.783333 10.671528,83.431944 0.70555556,84.225836 5.55625,78.493056 0.44097222,77.346387 Z"
         id="path9"
         inkscape:connector-curvature="0" />
      <path
         style="fill:#ffdfa0;fill-opacity:1;fill-rule:evenodd;stroke:none"
         d="M 70.82028,52.3875 53.975,67.292502 l -2.645833,12.964442 0.61722,1.852225 2.381391,2.20472 8.290278,0.529167 6.35,1.675553 5.115277,-2.557498 L 88.9,67.733333 88.635276,56.444444 85.107498,51.064724 74.700836,51.593609 Z"
         id="path11"
         inkscape:connector-curvature="0" />
      <path
         style="fill:#dcdcff;fill-opacity:1;fill-rule:evenodd;stroke:none"
         d="m 4.2333333,85.813053 9.3486107,-0.61722 13.317362,1.234723 9.084027,-1.851943 8.201943,0.793609 5.73278,-1.499164 4.233333,-3.439725 4.7625,-3.880555 6.438053,-3.792502 1.058334,-1.322776 6.614724,-2.645833 1.763889,0.793609 -1.058333,2.910557 0.352777,3.968891 -3.439724,3.175 -4.321387,3.968609 -0.440831,2.20472 1.058333,3.086947 7.408334,-5.644444 5.114995,0.529166 3.968891,-0.881944 4.144998,1.234722 5.556391,-0.264442 6.790831,1.499164 7.937786,0.352778 4.93889,-0.352778 3.175,0.793609 -16.492507,1.235005 16.492507,0.705555 -17.903618,1.587218 19.579168,1.235004 -45.59667,1.322776 46.56667,1.940278 H 4.2333333 L 30.868056,92.780556 4.2333333,92.251389 16.139583,90.663889 4.2333333,89.340831 34.925,88.811947 14.993056,86.959722 4.2333333,88.282498 Z"
         id="path13"
         inkscape:connector-curvature="0" />
      <path
         style="fill:#7a7a9b;fill-opacity:1;fill-rule:evenodd;stroke:none"
         d="m 77.875836,41.010276 -5.380003,9.260557 -3.263335,6.438336 16.139724,-4.586111 5.37972,2.910275 3.616114,-1.146386 3.880555,-9.877778 -2.381109,-2.998893 z"
         id="path15"
         inkscape:connector-curvature="0" />
      <path
         style="fill:#ffffff;fill-opacity:1;fill-rule:evenodd;stroke:none"
         d="m 78.493056,34.307498 5.115277,0.441113 6.35,-0.881944 2.469445,2.910275 -1.675836,2.028614 -1.411111,2.822222 -0.176107,1.851942 -3.086946,7.496669 -1.851942,0.264442 -0.97028,-2.469444 -3.792503,-0.176107 0.08834,-2.381391 1.675553,-1.058333 -0.352778,-1.146387 1.323058,-0.882227 v -1.322775 l 0.529167,-0.793891 -3.086665,0.441113 -1.146668,-7.143891 v 0 0 0 z"
         id="path17"
         inkscape:connector-curvature="0" />
      <path
         style="fill:#666666;fill-opacity:1;fill-rule:evenodd;stroke:none"
         d="m 97.013889,73.642502 1.499164,-1.235004 1.058334,0.08834 1.323053,1.499447 -2.293051,1.23444 -1.763889,-1.146387 0.176389,-0.440831 v 0 0 0 z"
         id="path19"
         inkscape:connector-curvature="0" />
      <path
         style="fill:#dcdcff;fill-opacity:1;fill-rule:evenodd;stroke:none"
         d="m 21.607639,37.12972 -3.880556,3.527778 -2.293055,2.998893 -2.469445,5.820551 -1.322916,0.529449 -1.234723,2.292773 0.0882,2.734169 0.176389,1.234723 -0.7055558,4.497775 v 11.200836 l 2.2930558,1.763889 h 1.058333 l 1.852083,-2.381392 -0.79375,-2.557497 -0.440972,-7.231945 0.440972,-1.763889 1.499306,-3.175 0.440972,0.441114 2.910417,0.440831 0.264583,-3.792502 -2.469444,-2.028332 0.352778,-4.409722 1.852083,-4.233333 3.527778,-6.438053 -1.146528,0.528884 v 0 0 0 z"
         id="path21"
         inkscape:connector-curvature="0" />
      <path
         style="fill:#ffd3d3;fill-opacity:1;fill-rule:evenodd;stroke:none"
         d="m 79.551389,48.59528 -2.293056,1.939996 -1.146386,5.73278 0.08805,1.411111 2.381391,-0.08834 1.499165,-1.23444 1.499164,-3.263335 2.55778,0.705555 2.116667,1.763889 1.675553,3.086664 0.793891,-1.587217 -0.793891,-1.587783 -2.381109,-2.998328 -1.411111,-1.587783 -0.881944,-2.116666 -3.704167,-0.176107 v 0 0 0 z"
         id="path23"
         inkscape:connector-curvature="0" />
      <path
         style="fill:#ffd3d3;fill-opacity:1;fill-rule:evenodd;stroke:none"
         d="m 62.441667,61.736111 1.763889,1.5875 h 1.499164 l 0.352778,1.499447 -1.23444,1.587218 -2.734169,-0.705556 -3.263053,-0.793609 -3.880556,5.556391 -3.175,-1.852224 0.793609,-5.73278 6.614724,-2.469445 z"
         id="path25"
         inkscape:connector-curvature="0" />
      <path
         style="fill:#ffffff;fill-opacity:1;fill-rule:evenodd;stroke:none"
         d="m 36.600836,44.802778 -0.882227,6.085275 8.90778,1.763889 -0.441113,-8.466666 z"
         id="path27"
         inkscape:connector-curvature="0" />
      <path
         style="fill:#ffffff;fill-opacity:1;fill-rule:evenodd;stroke:none"
         d="m 41.186947,51.240831 -2.205003,3.792502 -2.381108,13.758334 4.586111,-0.705556 2.822222,-0.176389 5.114995,1.940278 4.410005,-0.705556 -1.411111,-2.910275 1.587218,-5.203613 -8.201943,-9.260276 z"
         id="path29"
         inkscape:connector-curvature="0" />
      <path
         style="fill:#7a7a9b;fill-opacity:1;fill-rule:evenodd;stroke:none"
         d="m 33.601942,44.361947 -3.086664,0.528884 -2.293056,1.146669 -1.5875,2.116667 -0.176389,1.675553 -1.146527,1.235004 0.176388,1.23444 1.146528,1.587783 -0.176389,4.321386 8.378614,0.529167 3.615831,-4.497776 -1.851942,-8.378613 z"
         id="path31"
         inkscape:connector-curvature="0" />
      <path
         style="fill:#a2a2cd;fill-opacity:1;fill-rule:evenodd;stroke:none"
         d="m 85.107498,51.593609 3.616113,1.235004 6.35,0.176107 0.705556,0.529449 -1.675554,2.910275 -0.352777,2.822223 -2.469445,7.231944 0.352778,0.705556 0.528884,1.058333 -0.176106,1.234722 0.881662,-0.176389 0.352778,3.616114 5.027224,5.556109 2.910559,0.881944 v 2.028613 l -1.499448,0.528885 -3.616113,0.441113 -10.671387,-2.028331 -4.674164,-4.674447 1.939995,-3.968891 4.498058,-7.231662 1.5875,-6.614724 -0.793891,-2.822223 -3.703884,-3.792502 z"
         id="path33"
         inkscape:connector-curvature="0" />
      <path
         style="fill:#a2a2cd;fill-opacity:1;fill-rule:evenodd;stroke:none"
         d="m 29.633333,57.15 -2.822222,0.176389 1.411111,4.144998 3.615831,6.967502 1.94056,2.822222 -1.587782,0.793609 0.352778,1.058333 -0.705556,1.411111 v 2.381392 l -1.411111,0.529166 -3.351248,2.998611 -3.527777,0.352778 -1.058334,1.411111 v 2.028614 l 7.761253,0.705555 2.998328,-1.235004 7.232227,-1.587218 5.291667,-4.321669 -1.058334,-4.850553 -1.587782,-0.352778 -0.176106,-2.205002 -3.175,-1.940278 -2.734169,-1.499165 1.940277,-3.527777 1.675554,-11.112783 -2.028331,-1.23444 -1.5875,4.938889 -2.20472,1.499165 -3.439725,-0.176389 z"
         id="path35"
         inkscape:connector-curvature="0" />
      <path
         style="fill:#a2a2cd;fill-opacity:1;fill-rule:evenodd;stroke:none"
         d="m 46.213889,31.485276 -13.317502,3.527777 -2.292774,0.882227 1.587218,1.675553 -1.411111,0.264443 1.323058,1.323057 -1.851942,0.352778 -1.058334,3.527778 5.997222,2.645833 6.261665,0.352778 -1.5875,2.116667 0.97028,2.733886 0.176107,0.97028 1.94056,2.20472 1.587217,-0.793609 0.264725,2.20472 0.881944,-0.176106 0.352778,3.175 7.849447,2.20472 L 63.5,60.589724 68.87972,56.797222 71.613889,54.504167 74.083333,51.858333 76.2,48.59528 l 1.675836,-2.293338 1.058333,-1.763889 -0.08834,-1.411111 0.08834,-1.322775 0.793609,-0.969998 -0.529167,-1.852225 -0.264442,-1.675553 0.793609,-0.529449 -0.881945,-0.61722 0.176389,-0.793891 -1.675835,-1.23444 1.323057,-0.793891 -1.851942,-0.793891 -1.235004,-1.23444 1.499446,-0.882227 -1.146668,-0.881662 1.94056,-0.97028 2.822222,-3.792361 -1.852225,-2.116667 -11.994444,0.970139 -18.344445,7.231945 z"
         id="path37"
         inkscape:connector-curvature="0" />
      <path
         style="fill:#dcdcff;fill-opacity:1;fill-rule:evenodd;stroke:none"
         d="m 42.950836,47.448611 -1.323058,0.793891 1.146386,0.08805 -0.440831,1.499164 1.5875,-0.264442 0.176389,2.028331 2.557498,-2.469445 -0.08805,2.381392 1.058333,-0.793609 0.176389,1.587217 0.881944,-0.793608 0.176389,1.146386 1.058334,-0.61722 0.176388,1.234722 0.881945,-0.705555 0.352778,1.675835 1.234722,-0.617502 0.793609,1.499165 1.323058,-1.322776 0.440831,1.146669 1.499446,-1.323058 0.264443,1.323058 0.97028,-1.146669 0.617502,1.234722 0.61722,-0.97028 1.058333,0.97028 0.61722,-0.705555 0.441113,0.617502 0.441114,-0.882227 1.675553,1.323058 0.61722,-0.793609 0.441113,0.440831 0.793892,-1.234722 1.322775,1.322776 0.08834,-2.028331 1.851942,1.411111 v -2.116667 l 1.499164,0.441113 0.08834,-1.323057 1.675553,0.352777 -0.352778,-2.469444 2.293338,0.176389 0.881662,-1.411111 -0.881662,-3.351389 h 1.675554 l -1.499447,-1.146387 2.028613,-0.176671 -2.20472,-2.116667 1.939996,-0.08805 -1.675554,-1.5875 1.940278,0.08834 -2.20472,-1.675836 0.793609,-0.352778 -0.529167,-0.264724 1.940278,-0.705556 h -1.940278 l -0.264442,-0.352778 2.116667,-0.881662 -2.116667,-0.176671 -1.058333,-0.61722 0.440831,1.675553 -2.645833,-0.440831 -0.441114,2.998611 L 67.46862,37.218059 67.204178,39.511114 64.911111,38.1 64.823058,40.834169 63.5,39.334722 V 41.275 l -1.411111,-0.793609 v 1.499165 l -0.617502,-0.264725 -0.08805,0.882227 h -0.793609 l 0.176107,0.969998 -0.969998,-0.08834 -0.264442,1.763889 -0.617502,-0.881662 -0.793609,1.23444 -0.882227,-1.499165 -0.793609,1.499165 -0.881944,-2.116667 -1.411111,-0.440831 -1.499447,0.793609 -0.528884,-0.793609 -1.763889,1.499164 -0.793891,-0.61722 -2.645834,2.645834 h -1.234722 l -0.881944,0.97028 -1.851942,-0.08834 v 0 0 0 z"
         id="path39"
         inkscape:connector-curvature="0" />
      <path
         style="fill:#ffd3d3;fill-opacity:1;fill-rule:evenodd;stroke:none"
         d="m 44.45,16.933333 -4.498058,10.583334 -0.61722,6.261946 2.116667,-0.793891 6.438335,-0.352778 3.79222,5.291667 3.79222,2.205002 3.704449,-1.675835 0.176107,-9.436947 5.11556,-4.144998 7.143609,-1.499305 -5.997222,-4.850695 -10.936111,-3.704166 -7.32028,1.411111 z"
         id="path41"
         inkscape:connector-curvature="0" />
      <path
         style="fill:#dcdcff;fill-opacity:1;fill-rule:evenodd;stroke:none"
         d="m 60.677778,29.809722 0.97028,5.027225 0.61722,-1.94056 1.852224,1.499446 0.264442,-1.146669 1.5875,0.529449 -0.08805,-1.323057 1.763889,0.440831 -0.352778,-1.587218 2.469445,1.058333 v -1.323058 l 1.675553,0.529167 -0.08834,-0.793891 1.763889,0.264724 0.97028,0.264725 -0.440831,-0.617502 1.23444,-0.352778 -1.146386,-1.146387 2.645833,-0.793891 1.763889,-1.940278 -2.469445,0.79375 1.234723,-2.734027 -3.175,0.970138 h -3.704167 l -4.056945,0.176389 -2.469444,1.499306 -2.734169,1.5875 -0.08805,1.058333 v 0 0 0 z"
         id="path43"
         inkscape:connector-curvature="0" />
      <path
         style="fill:#dcdcff;fill-opacity:1;fill-rule:evenodd;stroke:none"
         d="m 47.184169,33.866667 3.703884,5.115277 0.264725,1.499447 -0.617502,-0.882227 -1.058334,1.058334 -0.264442,-0.881662 -1.499447,1.675553 -0.793609,-1.234722 -1.234722,1.146386 -0.881944,-0.528884 -0.793609,0.61722 -0.264725,-0.793891 -1.675835,1.499446 0.264724,-1.058333 -0.881944,1.058333 0.176389,-1.146668 -1.146387,0.617502 0.264442,-0.97028 -1.411111,0.176671 0.441114,-1.411111 -1.323058,-0.352778 -1.234722,0.881662 -3.527778,0.529449 0.705555,-0.882227 -1.146669,-0.881662 0.793892,-0.617502 -0.969998,-1.323058 4.321386,-0.08805 4.321387,-2.557498 3.704449,-0.441113 h 1.675553 l 0.08834,0.176389 v 0 0 0 z"
         id="path45"
         inkscape:connector-curvature="0" />
      <path
         style="fill:#dcdcff;fill-opacity:1;fill-rule:evenodd;stroke:none"
         d="m 54.063053,22.842361 -0.264442,1.234722 1.234722,0.529167 0.793609,-0.352778 0.264725,-1.146528 -0.352778,-0.79375 -0.881945,-0.176388 -0.61722,0.440972 z"
         id="path47"
         inkscape:connector-curvature="0" />
      <path
         style="fill:#dcdcff;fill-opacity:1;fill-rule:evenodd;stroke:none"
         d="m 51.152778,24.60625 -1.234722,-0.08819 -0.793892,0.79375 0.264725,0.970138 1.763889,0.176389 0.264724,-1.322916 -0.264724,-0.529167 v 0 0 0 z"
         id="path49"
         inkscape:connector-curvature="0" />
      <path
         style="fill:#a2a2cd;fill-opacity:1;fill-rule:evenodd;stroke:none"
         d="M 52.828613,11.465278 50.8,14.111111 l 1.499164,3.439583 0.882227,1.058334 1.23444,-0.08819 2.734169,1.675695 h 3.086947 l -0.08834,-0.617361 -1.675553,-1.5875 -0.08834,-3.880556 -4.7625,-2.645833 h -0.793609 v 0 0 0 z"
         id="path51"
         inkscape:connector-curvature="0" />
      <path
         style="fill:#a2a2cd;fill-opacity:1;fill-rule:evenodd;stroke:none"
         d="m 47.184169,14.463889 -3.968891,4.674305 -0.441114,5.203473 2.293338,0.705555 0.61722,-1.058333 h 1.234722 L 46.566667,22.136806 48.59528,21.166667 49.653613,19.05 49.388889,15.345833 49.036111,14.463889 Z"
         id="path53"
         inkscape:connector-curvature="0" />
      <path
         style="fill:#ffe5ab;fill-opacity:1;fill-rule:evenodd;stroke:none"
         d="M 55.738889,2.9104167 50.359169,0.26458333 48.330556,0.79375 43.656391,2.6458333 39.775836,5.7326389 37.747222,8.9958333 35.89528,15.610417 l -1.852224,17.021527 -2.910558,3.175 5.291666,-0.61722 4.057227,-5.380002 2.733887,-6.085416 L 44.45,19.579167 45.42028,19.05 45.596387,17.109722 47.184169,15.875 l 0.969998,-0.881944 0.969997,0.176388 0.793892,3.439584 1.5875,-0.705556 0.176388,-3.527778 2.205003,-1.322916 0.528884,1.411111 1.499447,0.08819 0.793891,1.499306 4.233333,1.322917 9.260276,4.321527 8.466666,1.234723 0.529167,0.705555 -1.322775,1.852083 h 1.763888 0.793609 L 82.373611,23.8125 79.375,22.048611 74.700836,20.549306 67.909722,18.25625 67.115831,14.463889 64.734722,8.2902778 63.059169,5.3798611 58.384722,3.6159722 Z"
         id="path55"
         inkscape:connector-curvature="0" />
      <path
         style="fill:#ff0000;fill-opacity:1;fill-rule:evenodd;stroke:none"
         d="m 61.29528,9.6131944 4.586111,1.5874996 2.733887,7.055556 -4.144998,-1.763889 z"
         id="path57"
         inkscape:connector-curvature="0" />
      <path
         style="fill:#000000;fill-opacity:1;fill-rule:evenodd;stroke:none"
         d="m 59.619444,26.017361 0.617503,0.529167 -0.617503,1.322916 -0.705555,1.146387 -0.264725,2.910558 -0.793608,3.880555 -1.058334,2.116667 -1.058333,0.705556 -2.20472,0.08834 -1.675836,-1.146669 -2.734169,-3.880555 -0.528884,-1.411111 -1.323058,-0.176389 0.264725,-1.058334 v -1.499164 l -0.97028,1.23444 -0.352778,1.323058 0.352778,0.793609 1.323057,0.264724 2.822223,4.498058 1.763889,1.675553 0.969997,0.352778 -0.08834,2.293056 2.734169,0.97028 0.97028,1.058333 0.176106,-0.793891 1.146669,1.146669 -0.08833,-1.146669 0.882226,0.705555 -0.176671,-1.499446 0.882227,0.441113 -0.08834,-1.499447 0.793891,0.617503 -0.08833,-1.5875 0.881944,0.441113 -0.617502,-2.116667 1.235005,1.322776 -0.08834,-2.998611 -0.705556,-1.146387 -0.793891,-3.704449 -0.352777,-3.175 0.705555,-0.881803 0.176671,-1.499306 -0.176671,-0.617361 h -1.146387 v 0 0 0 z"
         id="path59"
         inkscape:connector-curvature="0" />
      <path
         style="fill:#000000;fill-opacity:1;fill-rule:evenodd;stroke:none"
         d="m 43.656391,22.842361 -2.998893,3.880556 -2.469445,5.203472 -1.587217,1.499447 -1.499447,1.411111 -0.61722,0.969997 2.469444,-0.08834 4.144998,-2.381109 1.499447,-3.527778 0.528884,-3.96875 0.529449,-2.998611 v 0 0 0 z"
         id="path61"
         inkscape:connector-curvature="0" />
      <path
         style="fill:#000000;fill-opacity:1;fill-rule:evenodd;stroke:none"
         d="m 60.501389,17.109722 3.439442,2.38125 3.351671,2.557639 -2.028613,-0.264583 4.321387,2.734028 2.734168,0.352777 4.674165,-0.970139 1.587782,-1.058333 -2.116667,-0.79375 -6.173893,-1.675694 -4.40944,-1.146528 -1.499447,-0.352778 z"
         id="path63"
         inkscape:connector-curvature="0" />
      <path
         style="fill:#000000;fill-opacity:1;fill-rule:evenodd;stroke:none"
         d="m 69.497222,23.988889 h -2.116666 l -2.028614,-1.146528 0.882227,1.146528 -2.116667,0.881944 -3.175,2.469445 -0.882226,1.322775 1.323057,-0.969997 2.998611,-2.38125 2.381109,-0.617362 2.822223,-0.176388 2.734168,0.352777 z"
         id="path65"
         inkscape:connector-curvature="0" />
      <path
         style="fill:#000000;fill-opacity:1;fill-rule:evenodd;stroke:none"
         d="M 43.656391,21.343056 44.009169,19.05 l 1.058333,-0.176389 -0.176671,-2.028472 0.793891,-0.352778 1.322776,0.352778 -1.322776,0.08819 v 2.557639 l -1.058333,0.176389 -0.352778,1.675695 h -0.61722 v 0 0 0 z"
         id="path67"
         inkscape:connector-curvature="0" />
      <path
         style="fill:#000000;fill-opacity:1;fill-rule:evenodd;stroke:none"
         d="m 44.45,24.959028 0.793609,-1.322917 h 1.146669 l -0.08834,-1.5875 1.94056,-0.970139 L 49.300832,19.05 48.771383,16.933333 v -1.411111 l -0.881663,-0.08819 -0.617502,0.529166 -0.529166,-0.264583 0.793891,-0.970139 1.675553,0.0882 0.352778,0.970139 -0.08834,1.146527 0.352778,1.058334 1.411111,-1.146528 0.264725,-3.086806 0.529166,2.998611 0.529167,0.08819 0.705555,1.499305 h 1.323058 l 0.440831,1.234723 -0.881944,-0.705556 -1.322776,0.08819 -0.617502,-0.970139 -2.20472,1.411111 -1.411111,1.940278 -1.675836,1.058333 0.352778,1.675694 L 46.39027,24.341666 45.684722,24.165278 45.067502,25.4 Z"
         id="path69"
         inkscape:connector-curvature="0" />
      <path
         style="fill:#000000;fill-opacity:1;fill-rule:evenodd;stroke:none"
         d="M 52.828613,13.405556 54.239724,12.7 l 0.528885,1.411111 h 1.499447 l 0.529166,1.5875 1.5875,0.970139 0.264442,1.322917 1.852225,1.411111 0.264442,1.322916 -2.998329,-0.440972 1.851942,-0.264583 -0.176388,-0.705556 -1.234723,-0.970139 -0.176389,-1.411111 -1.852224,-0.705555 -0.352778,-1.411111 -1.675553,-0.176389 -0.352778,-1.146528 -1.146669,0.440972 z"
         id="path71"
         inkscape:connector-curvature="0" />
      <path
         style="fill:#000000;fill-opacity:1;fill-rule:evenodd;stroke:none"
         d="m 48.59528,25.311806 0.08805,0.79375 0.97028,0.79375 1.058334,0.08819 0.881662,-0.529167 0.176671,-0.705555 -0.441113,-1.058334 -0.705556,-0.176388 0.08834,0.705555 -0.352778,0.79375 -0.705556,-0.176389 -0.352777,-0.352778 -0.08834,-0.617361 -0.61722,0.440973 v 0 0 0 z"
         id="path73"
         inkscape:connector-curvature="0" />
      <path
         style="fill:#000000;fill-opacity:1;fill-rule:evenodd;stroke:none"
         d="m 53.534169,22.489583 -0.264725,0.79375 0.176389,1.234723 1.499447,0.617361 1.23444,-0.440973 0.352778,-0.79375 -0.176107,-0.617361 -0.441113,-0.352777 -0.264442,0.79375 -0.352778,0.352777 h -0.617502 l -0.440832,-0.529166 0.264443,-1.058334 z"
         id="path75"
         inkscape:connector-curvature="0" />
      <path
         style="fill:#000000;fill-opacity:1;fill-rule:evenodd;stroke:none"
         d="m 40.481391,32.896387 5.732498,-0.793609 0.352778,0.793609 -5.468056,0.441113 z"
         id="path77"
         inkscape:connector-curvature="0" />
      <path
         style="fill:#000000;fill-opacity:1;fill-rule:evenodd;stroke:none"
         d="m 33.425836,35.365831 -3.704449,0.176671 1.94056,1.851942 -1.94056,0.08805 1.675835,1.411111 -1.763889,0.176671 -0.881944,1.322776 v -1.499447 l -2.734028,1.852224 2.38125,-3.263335 -3.615972,3.351671 0.617361,1.322775 5.291667,1.322776 0.881944,-0.881662 -1.322775,-1.146669 3.175,-0.08834 -2.910558,-1.675553 2.645833,-0.08834 -1.851942,-1.587217 1.587218,-0.264725 -1.675554,-1.851942 2.205003,-0.529449 v 0 0 0 z"
         id="path79"
         inkscape:connector-curvature="0" />
      <path
         style="fill:#000000;fill-opacity:1;fill-rule:evenodd;stroke:none"
         d="m 53.975,42.068609 -1.058333,0.617502 -1.146387,-0.440831 -1.323058,1.499164 -1.058333,-0.529166 -2.822222,2.822222 -0.881945,-0.08834 -1.058333,1.235005 -3.616113,-0.529449 -1.499165,-0.352778 -1.146387,1.146669 -2.469444,0.529167 -4.850836,-2.20472 1.763889,-0.529449 0.617503,-1.058333 -0.882227,-0.969998 3.086947,-1.058334 -1.675836,1.322776 h 2.381391 L 38.1,43.126938 l 2.734169,-1.411111 -2.469445,1.763889 -1.411111,1.146669 4.497776,-2.028331 -1.234722,2.028331 3.439724,-3.175 -0.08834,1.763889 1.322775,-1.675554 v 1.675554 l 1.852225,-2.116667 -0.352778,2.645833 2.733886,-3.086946 -0.61722,2.293338 2.116667,-2.646116 -0.176389,2.469444 2.20472,-4.40944 -0.08805,3.615832 1.146387,-0.705556 0.264724,0.793609 v 0 0 0 z"
         id="path81"
         inkscape:connector-curvature="0" />
      <path
         style="fill:#000000;fill-opacity:1;fill-rule:evenodd;stroke:none"
         d="m 35.630556,40.657498 h 1.5875 l 1.675553,-0.793609 -0.176107,0.529167 -1.235004,0.705555 -2.910276,0.176389 z"
         id="path83"
         inkscape:connector-curvature="0" />
      <path
         style="fill:#000000;fill-opacity:1;fill-rule:evenodd;stroke:none"
         d="m 39.334722,41.186947 -2.381109,1.23444 0.440831,0.264724 2.381392,-1.234722 z"
         id="path85"
         inkscape:connector-curvature="0" />
      <path
         style="fill:#000000;fill-opacity:1;fill-rule:evenodd;stroke:none"
         d="m 48.948058,0.26458333 -5.11556,2.02847227 -4.233334,3.0868055 -2.20472,3.175 -1.5875,5.6444449 -1.234722,7.584722 -0.617502,6.879025 -0.61722,3.880556 -1.675553,2.205002 -2.028614,2.028331 L 33.95472,33.3375 34.484169,32.455556 34.925,27.163889 35.454167,21.960417 36.600836,14.375694 38.1,8.6430556 40.481391,5.55625 44.009169,2.7340278 49.300836,0.70555556 51.858333,1.2347222 56.620833,3.96875 57.855556,6.35 60.677778,12.876389 63.323611,17.4625 64.293609,17.727083 61.206944,12.876389 58.384722,5.55625 57.855556,3.7923611 54.415831,1.4111111 51.064724,0 Z"
         id="path87"
         inkscape:connector-curvature="0" />
      <path
         style="fill:#000000;fill-opacity:1;fill-rule:evenodd;stroke:none"
         d="m 61.206944,37.482498 2.645834,1.058333 -0.264725,-2.028331 2.822223,1.411111 0.08834,-1.940278 2.733887,1.323058 -0.176107,-2.293338 3.086665,0.352778 -0.529167,-1.675553 1.940278,0.441113 3.351389,-1.058333 2.20472,-0.617502 L 76.2,31.397222 l 2.645833,-0.617502 -2.469444,-1.146387 3.263335,-1.234722 -0.793891,-0.705555 1.5875,-1.852084 -0.264724,-0.79375 -1.675553,0.176389 1.058333,-1.5875 -1.146669,-1.146528 -1.322776,0.352778 1.499447,0.705556 -1.587782,2.734027 2.469444,-0.529166 -2.292773,2.204861 0.08805,0.617361 -2.293055,0.97028 1.499446,0.881662 -2.028613,0.529449 1.851942,1.499165 -4.497775,-1.146387 2.645833,1.587218 -3.439724,-0.969998 -0.08805,1.940278 -2.645833,-1.499165 1.5875,2.028331 -3.263053,-1.234722 1.675553,2.381391 -3.263336,-1.587782 0.529449,2.734169 -2.998893,-2.469445 v 2.381392 l -2.20472,-1.852225 0.881944,2.733887 v 0 0 0 z"
         id="path89"
         inkscape:connector-curvature="0" />
      <path
         style="fill:#000000;fill-opacity:1;fill-rule:evenodd;stroke:none"
         d="m 53.886947,1.2347222 6.878884,2.8222222 2.469445,1.2347223 1.852224,3.175 3.351389,8.3784723 -0.617502,0.08819 -3.351107,-8.4666663 -1.852224,-2.8222223 -2.822223,-1.4993055 -0.61722,0.4409722 3.527778,7.6729169 2.116667,3.96875 5.114995,2.38125 9.966114,3.439583 2.998611,1.675695 -3.792502,3.263194 0.793891,-1.322917 L 81.756391,23.90069 78.228613,22.048611 68.968056,19.226389 64.293609,16.756944 61.9125,12.170833 58.473058,4.7625 57.590831,3.4395833 Z"
         id="path91"
         inkscape:connector-curvature="0" />
      <path
         style="fill:#000000;fill-opacity:1;fill-rule:evenodd;stroke:none"
         d="M 61.206944,9.3486111 65.70472,10.936111 66.234169,11.641667 61.29528,9.8777778 61.20694,9.3486111 v 0 0 0 z"
         id="path93"
         inkscape:connector-curvature="0" />
      <path
         style="fill:#000000;fill-opacity:1;fill-rule:evenodd;stroke:none"
         d="m 45.243609,4.7625 0.529449,1.1465278 h 1.499164 l 0.176389,-0.79375 -0.176389,-0.6173611 -1.058333,0.79375 L 45.773058,5.1152778 45.684718,4.5861111 45.243605,4.7625 v 0 0 0 z"
         id="path95"
         inkscape:connector-curvature="0" />
      <path
         style="fill:#000000;fill-opacity:1;fill-rule:evenodd;stroke:none"
         d="m 40.657498,46.566667 -1.675554,1.675835 0.881945,0.440831 -0.264725,1.5875 0.882227,0.08834 0.08805,3.175 1.940278,-3.086947 -1.499446,0.705556 0.882226,-2.381391 -1.235004,0.441113 0.97028,-1.763889 -1.323058,0.264442 1.94056,-1.23444 -1.587782,0.08805 v 0 0 0 z"
         id="path97"
         inkscape:connector-curvature="0" />
      <path
         style="fill:#000000;fill-opacity:1;fill-rule:evenodd;stroke:none"
         d="m 42.950836,51.681944 -0.441114,3.527778 1.5875,-1.322775 0.176389,2.469444 1.146669,-0.617502 -0.352778,2.645833 -0.176671,1.763889 -0.264442,0.705556 v 1.322775 l -1.852225,2.469445 3.351672,-2.292774 4.056662,0.176107 -0.61722,1.852224 0.529166,2.205003 0.352778,-2.998894 0.705556,-0.881662 0.705555,-0.176671 0.617503,0.264724 -0.882227,1.851943 0.08834,2.205002 1.234723,1.411111 -0.352778,-2.998611 0.705555,-1.763889 1.146387,-0.176389 2.205002,-0.264442 2.469445,-2.116667 3.439442,1.146387 3.527778,-2.822222 3.175,-2.557498 -1.146387,0.176107 -1.675835,1.058333 -2.292774,-2.381109 0.440831,2.469444 -2.734169,-2.822222 0.352778,2.381109 -0.08805,1.235005 -0.264725,1.23444 -0.881662,-4.674165 -0.176671,3.880556 -1.499164,-4.409723 -0.529167,4.497776 -1.058333,-4.40944 -0.969998,4.586111 -0.441113,-4.938889 -1.146669,4.497776 -0.705556,-4.321669 -1.499164,4.498058 -0.529167,-4.321387 -1.234722,3.880556 -0.264725,-4.762783 -1.146386,4.321669 -0.176389,-4.674446 -1.763889,3.792502 0.705555,-4.586111 -2.205002,3.527777 0.97028,-4.586111 -2.20472,2.734169 0.969998,-4.14528 -2.645833,2.910276 0.176389,-1.851942 -0.61722,0.176388 v 0 0 0 z"
         id="path99"
         inkscape:connector-curvature="0" />
      <path
         style="fill:#000000;fill-opacity:1;fill-rule:evenodd;stroke:none"
         d="m 66.057498,58.384722 -0.705556,-3.704166 1.499447,3.086946 z"
         id="path101"
         inkscape:connector-curvature="0" />
      <path
         style="fill:#000000;fill-opacity:1;fill-rule:evenodd;stroke:none"
         d="m 67.64528,57.326389 -0.617502,-3.263336 1.058333,2.822223 z"
         id="path103"
         inkscape:connector-curvature="0" />
      <path
         style="fill:#000000;fill-opacity:1;fill-rule:evenodd;stroke:none"
         d="m 69.938053,55.826942 -1.146386,-2.733886 0.529166,-0.08834 1.146669,2.734169 -0.529449,0.08805 v 0 0 0 z"
         id="path105"
         inkscape:connector-curvature="0" />
      <path
         style="fill:#000000;fill-opacity:1;fill-rule:evenodd;stroke:none"
         d="m 70.467502,52.563889 0.528885,1.763889 0.617502,-0.264725 -0.705556,-2.116666 z"
         id="path107"
         inkscape:connector-curvature="0" />
      <path
         style="fill:#000000;fill-opacity:1;fill-rule:evenodd;stroke:none"
         d="m 72.05472,50.711947 0.529449,1.763889 0.705555,-0.08834 -0.793891,-2.116667 -0.441113,0.441114 v 0 0 0 z"
         id="path109"
         inkscape:connector-curvature="0" />
      <path
         style="fill:#000000;fill-opacity:1;fill-rule:evenodd;stroke:none"
         d="m 75.406391,52.916667 -1.94056,0.617502 -2.028331,1.322775 -0.08834,0.61722 1.235005,-0.440831 1.675553,-0.97028 1.411111,-0.528884 -0.264442,-0.617502 v 0 0 0 z"
         id="path111"
         inkscape:connector-curvature="0" />
      <path
         style="fill:#000000;fill-opacity:1;fill-rule:evenodd;stroke:none"
         d="m 65.440278,61.824164 3.263335,-2.733886 5.556109,-3.086665 -1.675553,1.499165 0.264442,0.529166 -2.822222,1.322776 -3.704167,3.263336 z"
         id="path113"
         inkscape:connector-curvature="0" />
      <path
         style="fill:#000000;fill-opacity:1;fill-rule:evenodd;stroke:none"
         d="m 76.993609,32.72028 2.646115,0.528884 -1.587782,0.97028 2.381391,1.058334 -1.411111,0.793609 1.940278,0.97028 -1.5875,0.617502 1.5875,0.793609 -1.411111,0.352778 1.058333,1.323057 -0.969998,0.08805 0.881663,1.675835 -1.146387,0.264442 0.705556,1.322776 -0.97028,0.352778 0.441113,1.146669 -0.969998,0.529166 v 1.058334 l -2.293338,-0.440831 h -0.881662 l -0.176671,1.058333 -0.793609,-1.675836 0.529167,-0.264724 2.381109,0.352778 -2.116667,-1.675554 3.616113,0.61722 -3.704166,-2.645551 3.615831,0.881662 -3.351107,-2.557497 4.056662,0.881944 -4.850553,-3.175 4.233333,1.322776 v -1.23444 l -3.704166,-0.705556 3.968609,-0.617502 -4.497776,-0.529167 4.233333,-0.969998 -4.7625,-0.441113 3.968609,-1.322775 -3.086664,-0.529449 2.028331,-0.176107 v 0 0 0 z"
         id="path115"
         inkscape:connector-curvature="0" />
      <path
         style="fill:#000000;fill-opacity:1;fill-rule:evenodd;stroke:none"
         d="m 78.845833,34.219444 2.55778,0.176389 2.469445,0.176389 4.321386,-0.617502 1.763889,-0.08805 1.763889,1.058333 1.058334,1.5875 -0.08805,0.793891 -2.381391,3.086665 h 3.792502 l 1.322776,0.264442 -0.881945,0.793891 -3.175,1.499447 -2.734168,2.822222 -0.969998,2.381109 0.352778,2.645833 -0.176389,0.705556 -2.645834,0.352777 -0.793891,-0.881944 1.763889,-1.411111 v -2.205002 l 2.646116,-4.40944 v -2.293338 l 1.146386,-1.058334 v -0.705555 l 2.116667,-1.939996 -1.675836,-2.116666 -1.851942,-0.264725 -4.498058,0.617502 -2.469444,-0.176671 -2.733887,-0.176106 v -0.617503 0 0 0 z"
         id="path117"
         inkscape:connector-curvature="0" />
      <path
         style="fill:#000000;fill-opacity:1;fill-rule:evenodd;stroke:none"
         d="m 87.3125,37.218056 -1.763889,0.61722 -0.705555,0.793891 -1.058334,0.264442 -2.205002,3.086947 0.264724,0.97028 -1.499164,1.146386 0.176107,1.146387 -1.23444,0.529449 0.176106,2.822222 -0.969997,1.23444 1.763888,-0.969998 -0.441113,-2.55778 2.469445,-1.411111 -1.058334,-0.61722 1.763889,-1.058333 -0.08805,-1.234722 1.411111,-2.293056 0.97028,-0.08834 0.705555,-1.146386 1.851943,-0.705556 -0.529167,-0.529166 v 0 0 0 z"
         id="path119"
         inkscape:connector-curvature="0" />
      <path
         style="fill:#000000;fill-opacity:1;fill-rule:evenodd;stroke:none"
         d="m 77.611111,50.976389 -0.617502,0.61722 -0.352778,1.146669 -0.176107,1.675553 -0.882226,1.411111 -0.176107,1.235005 0.705556,0.881662 h 2.733886 l 2.293056,-0.881662 V 55.209722 L 81.491667,53.534169 82.109169,52.916667 81.315278,52.651942 80.874164,51.858333 80.34528,53.710276 79.375,56.356391 78.228613,57.15 76.376389,57.326389 V 56.17972 l 0.705555,-1.499164 0.793892,-2.998612 z"
         id="path121"
         inkscape:connector-curvature="0" />
      <path
         style="fill:#000000;fill-opacity:1;fill-rule:evenodd;stroke:none"
         d="m 82.461947,53.710276 1.851942,0.617502 1.499164,1.234722 0.882227,2.116667 0.352778,2.55778 -0.617502,3.968609 -0.705556,2.116666 2.910276,0.352778 0.793891,-1.763889 1.411111,-3.263053 1.234722,-4.850836 0.97028,-2.116666 -4.498058,-0.352778 -0.440831,0.881944 -1.323058,-1.675553 -2.381391,-2.55778 -0.969998,-2.381109 -3.616113,-0.352778 0.441113,0.61722 h 2.381109 l 1.146669,2.116667 2.381109,2.910558 1.411111,1.763889 0.176671,1.322775 -0.705555,-0.264442 -0.793891,-1.675836 -1.763889,-1.499164 -1.852225,-0.441113 z"
         id="path123"
         inkscape:connector-curvature="0" />
      <path
         style="fill:#000000;fill-opacity:1;fill-rule:evenodd;stroke:none"
         d="m 94.897222,41.098611 1.058334,0.352778 1.234722,1.763889 -0.529167,2.910558 -1.499164,3.968608 -1.235005,3.263054 h 1.235005 l -0.529449,1.852224 -1.411111,2.381109 -0.08805,1.763889 -2.028613,5.997222 -0.264442,2.205002 1.058333,0.705556 -0.61722,1.322776 0.264442,0.617502 0.793891,0.08805 v 1.587782 l 0.705556,-0.176671 0.528884,-2.20472 -1.058333,-0.264724 0.441113,-1.23444 -1.322775,-1.146669 2.381109,-7.408333 0.61722,-2.55778 1.411111,-1.675554 0.176671,-1.852224 -0.529449,-0.881662 1.587782,-1.763889 -0.08834,-2.469445 2.116666,-3.439724 -2.910557,-4.056945 -1.587218,-0.264442 0.08805,0.61722 v 0 0 0 z"
         id="path125"
         inkscape:connector-curvature="0" />
      <path
         style="fill:#000000;fill-opacity:1;fill-rule:evenodd;stroke:none"
         d="m 80.521387,47.272222 0.352777,-0.793609 1.235005,-0.441113 1.146387,0.176389 1.058333,0.793609 -1.5875,-0.440831 -0.705556,0.08805 -0.969997,0.882227 -0.529449,-0.264725 v 0 0 0 z"
         id="path127"
         inkscape:connector-curvature="0" />
      <path
         style="fill:#000000;fill-opacity:1;fill-rule:evenodd;stroke:none"
         d="m 90.311111,49.918056 -0.529167,2.55778 -1.5875,-0.176672 -0.08805,0.441114 4.40944,0.793891 0.264725,-0.529449 -2.381392,-0.352778 0.705556,-2.557498 -0.793609,-0.176388 v 0 0 0 z"
         id="path129"
         inkscape:connector-curvature="0" />
      <path
         style="fill:#000000;fill-opacity:1;fill-rule:evenodd;stroke:none"
         d="m 94.985276,47.536947 -0.440832,2.469444 -1.234722,1.675553 -0.969998,0.529167 0.08805,-1.499164 1.323058,-1.852225 0.881662,-2.205002 0.352778,0.882227 v 0 0 0 z"
         id="path131"
         inkscape:connector-curvature="0" />
      <path
         style="fill:#000000;fill-opacity:1;fill-rule:evenodd;stroke:none"
         d="m 59.972222,64.999164 -2.381391,2.469445 -3.527778,5.644444 -1.499164,3.704449 -0.617502,3.351107 0.441113,1.94056 1.763889,-1.675836 2.998611,-0.881944 -2.381391,1.146669 -3.351107,4.321386 0.528885,-2.116666 -0.793609,-1.146387 -11.553614,0.969998 0.264725,-2.116667 3.351389,-2.733886 2.469444,0.881662 1.234722,-1.322776 4.7625,-0.352778 0.352778,-1.852224 -0.441113,-0.705556 0.882227,-1.499164 -4.233334,-2.645833 -2.55778,-1.675554 2.998611,-0.08834 2.822223,0.08834 0.97028,-0.882226 2.557497,1.675835 2.734169,-3.351389 -1.058333,0.441114 1.763889,-2.293338 z"
         id="path133"
         inkscape:connector-curvature="0" />
      <path
         style="fill:#000000;fill-opacity:1;fill-rule:evenodd;stroke:none"
         d="m 92.692502,72.936947 2.733887,3.086664 1.146669,1.499447 L 94.720833,77.258333 93.6625,75.141667 91.10472,73.377778 87.3125,75.053613 88.459169,76.2 l 0.61722,0.793609 -0.969998,1.146669 3.968609,-1.234722 -1.5875,1.675835 2.205002,-0.97028 -0.617502,1.5875 0.97028,0.705556 2.910276,0.264442 -0.176389,1.146669 1.675553,-0.264442 2.82222,-1.235005 0.52945,0.08834 -0.17667,1.146669 -4.233333,1.23444 -2.469445,-0.61722 -4.056662,-0.793892 0.08805,0.705556 3.439725,0.529449 2.822222,0.61722 4.938893,-1.058333 0.088,-2.910558 -2.822223,-0.881662 -2.293056,-2.116667 -2.998611,-3.263336 -0.440831,0.441114 v 0 0 0 z"
         id="path135"
         inkscape:connector-curvature="0" />
      <path
         style="fill:#000000;fill-opacity:1;fill-rule:evenodd;stroke:none"
         d="M 30.515278,59.707498 36.953613,58.7375 38.1,59.707498 l 0.08805,1.058333 -0.176106,2.205002 0.881662,0.176389 -0.881662,3.086947 1.146386,0.352778 2.469445,2.381109 -0.352778,1.058333 0.176389,1.763889 0.969998,2.116666 0.793891,0.441114 1.411111,-1.499447 2.293055,4.586111 -1.234722,1.322776 -2.469444,-0.881662 -2.910558,-2.116667 0.97028,1.763889 -2.116667,2.028331 -4.409722,1.411111 -6.614583,1.499447 -0.264584,-0.793891 4.14528,-2.381109 2.645552,-1.411111 3.439724,0.440831 -3.351389,-1.763889 -1.5875,-0.705556 0.440831,-0.881944 4.762782,-1.499447 -3.880555,-0.264442 4.144998,-0.705556 1.146669,-1.675553 -3.704449,0.969998 -1.411111,-2.205002 -1.939996,-2.822223 -1.058333,-5.291666 -1.146669,-1.763889 v 0 0 0 z"
         id="path137"
         inkscape:connector-curvature="0" />
      <path
         style="fill:#000000;fill-opacity:1;fill-rule:evenodd;stroke:none"
         d="m 40.834169,69.056391 1.499164,1.587218 0.264725,2.469444 2.028331,-0.264442 -1.322776,-0.529167 -0.176671,-2.028613 z"
         id="path139"
         inkscape:connector-curvature="0" />
      <path
         style="fill:#000000;fill-opacity:1;fill-rule:evenodd;stroke:none"
         d="m 16.933333,51.240831 -0.705555,-0.176107 -1.763889,-0.529448 v 1.146668 l -0.0882,1.852225 -0.440972,1.058333 0.881945,-0.529449 0.705555,-2.028331 -0.08819,2.645834 0.970139,-1.323058 v 1.852224 l 0.970139,-1.058333 0.529166,1.675553 0.79375,-1.763889 -0.08819,2.469445 -0.970139,0.352778 h -0.881945 l -0.970138,-0.793609 -1.411112,0.176389 1.146528,0.264442 0.705556,0.793891 1.146528,0.264442 1.322916,0.08834 1.322917,0.881944 h 2.734028 l 5.203472,1.940278 0.529308,-1.322776 -0.97028,-1.146669 0.352777,-0.969997 -7.584722,-2.822223 -0.08819,-0.705555 -1.852084,-1.675836 -1.411111,-0.617502 v 0 0 0 z"
         id="path141"
         inkscape:connector-curvature="0" />
      <path
         style="fill:#000000;fill-opacity:1;fill-rule:evenodd;stroke:none"
         d="m 33.425836,44.185276 -3.086947,0.529448 -1.851942,0.881663 -1.852225,1.675835 -0.529166,1.851942 -0.264584,0.793892 -0.705555,0.793891 -0.08819,0.705555 v 0.61722 l 1.058334,1.763889 0.08819,1.322776 h 0.705556 l -0.08819,-1.499165 -1.146528,-2.116666 0.970139,-1.499165 0.352778,-1.94056 1.411111,-1.587218 2.028331,-1.235004 2.910558,-0.08805 0.08834,-0.97028 v 0 0 0 z"
         id="path143"
         inkscape:connector-curvature="0" />
      <path
         style="fill:#000000;fill-opacity:1;fill-rule:evenodd;stroke:none"
         d="m 35.89528,47.977778 0.705556,1.675835 0.528884,2.381109 -0.264442,2.381109 -0.441114,1.763889 -1.851942,0.882227 -0.264724,-3.968891 h -0.793609 v 4.144997 l -1.146387,0.08834 -1.411111,-4.144998 0.08805,3.79222 -2.734168,-2.822222 1.235004,2.645833 h -2.116808 l -0.264583,0.529167 2.910275,0.176389 1.323058,0.529166 h 2.910276 l 1.94056,-0.969997 1.675553,-1.058334 0.969998,-2.55778 0.882227,-1.5875 -0.08834,1.499165 -0.529167,2.469444 -0.440831,5.821116 0.08805,0.61722 0.705555,-2.205002 0.617502,-4.233334 0.352778,-1.499164 0.352778,-1.940278 -0.264725,-1.146669 -1.5875,-0.705555 L 38.452778,48.683333 38.1,46.919444 Z"
         id="path145"
         inkscape:connector-curvature="0" />
      <path
         style="fill:#000000;fill-opacity:1;fill-rule:evenodd;stroke:none"
         d="m 26.9875,60.148611 2.645833,5.203331 1.146387,2.381391 2.469444,3.263054 -1.851942,0.705555 0.881945,1.763889 -0.969998,1.146669 v 1.852224 l -1.058333,0.61722 -3.175142,3.086665 -4.145138,0.352778 -0.705556,1.323057 -0.176389,2.293056 0.705556,0.352778 7.496669,0.705555 2.910275,-1.322775 6.614725,-1.146669 0.08805,-2.116667 -0.705556,0.352778 -0.793609,1.234722 -5.291666,1.234722 -2.822222,1.146669 -7.584864,-0.617502 0.08819,-1.851942 0.79375,-1.146669 3.96875,-0.529167 3.351389,-2.998611 1.499446,-0.705555 -0.176671,-2.293056 1.058333,-0.881944 -0.7936,-1.499447 1.675835,-0.61722 -0.705555,-1.322776 -1.94056,-2.822222 L 30.426942,65.175836 27.957639,60.325 Z"
         id="path147"
         inkscape:connector-curvature="0" />
      <path
         style="fill:#000000;fill-opacity:1;fill-rule:evenodd;stroke:none"
         d="m 84.931391,73.377778 2.028331,-1.675836 3.263336,-1.058333 0.08805,1.058333 -2.645833,0.705556 -2.205002,1.499446 -0.528885,-0.529166 v 0 0 0 z"
         id="path149"
         inkscape:connector-curvature="0" />
      <path
         style="fill:#000000;fill-opacity:1;fill-rule:evenodd;stroke:none"
         d="m 86.165831,70.467502 2.293338,-0.793891 0.793609,-0.08834 0.352778,0.264724 -2.469445,0.881944 -0.881944,0.176389 -0.08834,-0.440831 v 0 0 0 z"
         id="path151"
         inkscape:connector-curvature="0" />
      <path
         style="fill:#000000;fill-opacity:1;fill-rule:evenodd;stroke:none"
         d="m 85.989724,65.440278 -2.116666,4.233333 -2.028614,3.086665 -0.617502,1.146668 1.323058,-0.264442 -0.352778,-0.705555 2.20472,-3.175 1.852225,-3.616114 z"
         id="path153"
         inkscape:connector-curvature="0" />
      <path
         style="fill:#000000;fill-opacity:1;fill-rule:evenodd;stroke:none"
         d="m 40.040278,67.733333 4.233333,0.176389 0.969998,0.176389 2.028613,0.881945 -1.5875,-0.264443 -0.61722,-0.264724 -0.882226,-0.176389 h -4.144998 z"
         id="path155"
         inkscape:connector-curvature="0" />
      <path
         style="fill:#000000;fill-opacity:1;fill-rule:evenodd;stroke:none"
         d="m 42.774164,62.618056 h -1.146386 l -0.176389,1.146668 h 0.441113 l 0.176107,-0.617502 0.882227,-0.08805 -0.176672,-0.441113 v 0 0 0 z"
         id="path157"
         inkscape:connector-curvature="0" />
      <path
         style="fill:#000000;fill-opacity:1;fill-rule:evenodd;stroke:none"
         d="m 12.788194,49.2125 2.557639,-5.908887 4.056945,-5.291666 4.056944,-3.616114 h 0.705556 l -0.617361,1.411111 -4.497917,8.202225 -1.411111,3.527778 -0.352778,4.144997 -0.705555,-0.176388 0.264583,-4.233334 1.852083,-4.056944 3.351389,-5.73278 -2.998611,3.880555 -1.940278,3.351671 -2.293055,4.938889 -0.617361,-0.264724 2.557638,-5.203613 1.675695,-2.910276 1.058333,-1.763889 -3.527778,4.409722 -2.557638,5.997223 z"
         id="path159"
         inkscape:connector-curvature="0" />
      <path
         style="fill:#000000;fill-opacity:1;fill-rule:evenodd;stroke:none"
         d="M 12.788194,49.2125 11.729861,49.565278 10.671528,50.8 10.142361,52.475836 9.8777778,53.975 10.142361,55.826942 10.31875,56.532498 9.9659722,58.561111 9.7013889,61.030556 9.525,64.911111 v 5.026942 L 7.3201389,70.290831 7.9375,72.05472 9.1722222,72.407498 10.31875,71.878613 V 69.85 60.854167 l 0.352778,-2.469445 0.440972,-2.645833 -0.352778,-2.028613 0.176389,-1.675554 0.970139,-1.675553 1.499306,-0.441113 z"
         id="path161"
         inkscape:connector-curvature="0" />
      <path
         style="fill:#000000;fill-opacity:1;fill-rule:evenodd;stroke:none"
         d="m 11.818056,51.417502 -0.352778,0.793609 0.08819,1.411111 0.440972,0.08805 v -1.499165 l 0.440973,-0.97028 -0.617361,0.176671 v 0 0 0 z"
         id="path163"
         inkscape:connector-curvature="0" />
      <path
         style="fill:#000000;fill-opacity:1;fill-rule:evenodd;stroke:none"
         d="m 12.435417,55.738889 -0.79375,3.704167 -0.264584,5.115277 v 5.026943 l 0.705556,3.616113 H 12.7 l -0.705556,-3.616113 -0.176388,-4.938889 0.264583,-5.114996 0.881944,-3.616113 z"
         id="path165"
         inkscape:connector-curvature="0" />
      <path
         style="fill:#000000;fill-opacity:1;fill-rule:evenodd;stroke:none"
         d="m 15.257639,57.061947 -1.234722,2.20472 -0.617361,2.998611 0.176388,4.586111 0.79375,3.527778 0.705556,1.146669 0.176389,-0.352778 -0.440972,-0.97028 -0.617361,-3.615831 -0.0882,-4.498058 0.440972,-2.557498 1.146528,-2.116667 -0.440972,-0.352777 v 0 0 0 z"
         id="path167"
         inkscape:connector-curvature="0" />
      <path
         style="fill:#000000;fill-opacity:1;fill-rule:evenodd;stroke:none"
         d="M 9.7895833,67.115831 H 6.8791667 L 4.2333333,71.613889 4.8506944,71.790278 7.14375,67.733333 9.8777778,67.556944 9.7895828,67.115831 Z"
         id="path169"
         inkscape:connector-curvature="0" />
      <path
         style="fill:#000000;fill-opacity:1;fill-rule:evenodd;stroke:none"
         d="m 12.876389,73.818609 2.204861,-2.822222 0.881944,-0.176107 0.264584,-0.793891 -0.970139,-0.969998 -0.881945,-0.08834 v -0.441114 l 0.881945,0.08834 1.411111,0.881944 0.705556,-0.881944 2.028472,0.08834 4.056944,1.499165 0.176389,2.028613 -2.645833,1.851942 -2.293056,1.323058 -1.940278,0.528885 v -1.851943 l 1.058334,-0.881944 1.499305,-0.352778 0.352778,-0.529167 -0.264583,-0.529166 -1.499306,-0.176389 h -0.617361 l 0.264583,-0.352778 h 1.411112 l 0.705555,0.08805 0.970139,0.882227 0.264583,-1.499447 1.852084,0.08834 0.08819,-0.441113 -3.615972,-1.146669 h -1.499306 l -1.322916,2.205002 -0.881945,0.08834 -2.204861,2.822222 -0.440972,-0.529449 v 0 0 0 z"
         id="path171"
         inkscape:connector-curvature="0" />
      <path
         style="fill:#000000;fill-opacity:1;fill-rule:evenodd;stroke:none"
         d="m 22.930556,72.319444 3.263194,2.381392 -2.822222,0.176106 -0.352778,1.763889 0.79375,0.793891 2.998611,-1.675553 0.264583,-0.793891 -0.176388,-0.881945 0.176388,-0.264724 0.881945,0.08834 0.352637,0.529167 0.176671,0.97028 h 0.528884 v -1.058333 l -0.969998,-0.97028 -1.411111,-0.08805 -0.705555,0.264443 -2.734028,-1.763889 -0.264583,0.529166 v 0 0 0 z"
         id="path173"
         inkscape:connector-curvature="0" />
      <path
         style="fill:#000000;fill-opacity:1;fill-rule:evenodd;stroke:none"
         d="m 8.2902778,74.524164 0.7055555,-1.322775 1.4993057,-0.08834 1.499305,0.441114 0.176389,0.793891 -0.264583,1.058333 -0.970139,0.440831 -0.705555,-0.176389 -0.0882,-0.352777 0.79375,-0.529167 0.176389,-0.705556 -0.352778,-0.617502 -1.4111109,0.08834 -0.6173611,1.234722 -0.4409722,-0.264725 v 0 0 0 z"
         id="path175"
         inkscape:connector-curvature="0" />
      <path
         style="fill:#000000;fill-opacity:1;fill-rule:evenodd;stroke:none"
         d="m 11.1125,77.17028 1.234722,-1.146669 1.499306,-0.176389 1.146528,0.176389 0.440972,0.441113 -0.176389,0.705556 -0.881945,0.440831 -0.529166,0.08805 0.617361,-0.61722 0.352778,-0.441113 -0.440973,-0.352778 -1.146527,0.08834 -0.705556,0.61722 -0.79375,0.352778 z"
         id="path177"
         inkscape:connector-curvature="0" />
      <path
         style="fill:#000000;fill-opacity:1;fill-rule:evenodd;stroke:none"
         d="m 29.898058,72.05472 -0.617502,-0.352778 -0.617503,0.264725 0.08834,0.352777 1.499447,-0.08805 -0.352778,-0.176671 v 0 0 0 z"
         id="path179"
         inkscape:connector-curvature="0" />
      <path
         style="fill:#000000;fill-opacity:1;fill-rule:evenodd;stroke:none"
         d="m 97.101942,73.377778 1.146669,-1.058334 1.146669,-0.176388 1.85194,1.146668 0.44083,1.058334 -0.52888,0.264442 -1.499448,0.881944 h -0.793891 l -0.61722,-0.529166 0.08834,-0.61722 1.322775,-0.352778 0.352774,-0.617502 -0.705552,-0.705556 -0.881944,0.176389 -1.146387,0.881945 -0.176671,-0.352778 v 0 0 0 z"
         id="path181"
         inkscape:connector-curvature="0" />
      <path
         style="fill:#000000;fill-opacity:1;fill-rule:evenodd;stroke:none"
         d="m 22.754167,82.373611 2.734027,0.441113 3.880415,0.264443 4.321669,-0.881945 6.261664,-1.234722 -0.61722,0.529167 -9.789442,2.116666 -4.233474,-0.264724 -2.998612,-0.528885 z"
         id="path183"
         inkscape:connector-curvature="0" />
      <path
         style="fill:#000000;fill-opacity:1;fill-rule:evenodd;stroke:none"
         d="m 31.309169,85.636947 2.733887,0.352777 1.852224,-0.705555 2.028331,-0.617502 h 1.675553 l 2.469445,0.793609 1.411111,-0.08805 1.587782,-0.881944 h 4.850554 l -0.176389,0.352778 -4.409723,0.08834 -1.940277,1.23444 h -1.323058 l -2.645551,-0.881662 -1.852225,0.08805 -3.439442,1.234722 -3.704449,-0.529166 0.882227,-0.440831 v 0 0 0 z"
         id="path185"
         inkscape:connector-curvature="0" />
      <path
         style="fill:#000000;fill-opacity:1;fill-rule:evenodd;stroke:none"
         d="m 32.808333,88.9 1.499165,-0.529167 1.94056,-1.058333 1.499164,-0.264442 0.881945,0.176106 1.146669,0.441114 h 1.411111 l -0.264725,0.352778 -1.411111,0.176388 -1.323058,-0.440831 -1.058333,0.08805 -2.20472,0.97028 -2.116667,0.08805 v 0 0 0 z"
         id="path187"
         inkscape:connector-curvature="0" />
      <path
         style="fill:#000000;fill-opacity:1;fill-rule:evenodd;stroke:none"
         d="m 63.5,63.059169 0.705556,0.528884 1.146386,0.08834 0.08834,0.969998 -0.441114,0.264724 -2.645551,0.08805 -3.175,3.616114 -3.527777,5.556109 -1.058334,3.351671 -0.352778,1.499164 0.881663,1.058334 0.264724,-1.058334 -0.08805,-2.028613 1.058333,-2.292773 3.880556,-5.203614 -3.263336,5.556391 0.61722,0.352778 5.291667,-7.849447 3.175,-0.08834 0.529442,-3.968605 -0.97028,-0.705556 -1.146387,0.08805 z"
         id="path189"
         inkscape:connector-curvature="0" />
      <path
         style="fill:#000000;fill-opacity:1;fill-rule:evenodd;stroke:none"
         d="m 63.323611,77.258333 -0.529167,-0.176389 -0.440831,0.441114 -0.176671,0.793609 -0.08805,0.440831 -0.440831,-0.08805 0.08805,-1.058333 0.352778,-0.793609 0.529167,-0.264724 1.058333,0.440831 0.176389,0.352778 -0.529167,-0.08805 v 0 0 0 z"
         id="path191"
         inkscape:connector-curvature="0" />
      <path
         style="fill:#000000;fill-opacity:1;fill-rule:evenodd;stroke:none"
         d="m 63.323611,77.258333 0.264442,0.440831 v 0.352778 l -0.352777,0.352778 -0.440832,0.176671 -0.617502,-0.264724 -0.528884,0.352777 0.61722,0.440832 1.058333,0.08834 0.881945,-0.441113 0.176388,-0.881662 -0.705555,-0.882227 -0.352778,0.264724 v 0 0 0 z"
         id="path193"
         inkscape:connector-curvature="0" />
      <path
         style="fill:#000000;fill-opacity:1;fill-rule:evenodd;stroke:none"
         d="m 66.410276,76.2 0.352777,-0.352778 H 67.64528 L 68.086111,76.2 v 1.058333 l -0.264724,0.352778 h -0.61722 l -0.705556,-0.08805 0.08834,-0.529449 h 0.969997 l 0.08834,-0.705556 h -0.617502 l -0.617502,-0.08805 v 0 0 0 z"
         id="path195"
         inkscape:connector-curvature="0" />
      <path
         style="fill:#000000;fill-opacity:1;fill-rule:evenodd;stroke:none"
         d="m 56.268056,77.081944 3.439442,-1.058333 0.176671,0.352778 -3.616113,1.234722 z"
         id="path197"
         inkscape:connector-curvature="0" />
      <path
         style="fill:#000000;fill-opacity:1;fill-rule:evenodd;stroke:none"
         d="m 54.327778,83.079167 -2.293056,2.293055 0.08834,0.529167 0.793609,0.08834 2.028613,-3.086946 -0.617502,0.176389 v 0 0 0 z"
         id="path199"
         inkscape:connector-curvature="0" />
      <path
         style="fill:#000000;fill-opacity:1;fill-rule:evenodd;stroke:none"
         d="m 56.17972,83.784722 -1.146387,1.5875 0.617503,0.440831 z"
         id="path201"
         inkscape:connector-curvature="0" />
      <path
         style="fill:#000000;fill-opacity:1;fill-rule:evenodd;stroke:none"
         d="m 66.145833,82.020833 -0.969997,1.322776 0.352777,0.264724 1.058334,-1.499164 -0.441114,-0.08834 v 0 0 0 z"
         id="path203"
         inkscape:connector-curvature="0" />
      <path
         style="fill:#000000;fill-opacity:1;fill-rule:evenodd;stroke:none"
         d="M 54.504167,88.635276 55.915278,88.459169 57.15,87.92972 58.12028,87.665278 h 0.881662 l 2.028614,0.61722 0.97028,0.352778 1.939995,-0.61722 -1.675553,0.881944 -1.058334,-0.08805 -1.411111,-0.441114 -1.322775,-0.08834 -1.411111,0.352778 -0.97028,0.352777 -2.20472,-0.352777 h 0.61722 v 0 0 0 z"
         id="path205"
         inkscape:connector-curvature="0" />
      <path
         style="fill:#000000;fill-opacity:1;fill-rule:evenodd;stroke:none"
         d="m 82.285276,56.003613 1.146668,0.793609 0.529167,1.5875 -0.176389,3.527778 -1.675553,4.674447 -3.704449,5.732497 -2.998329,3.263054 -1.323058,0.882226 0.264725,-2.293337 -0.617502,-1.675554 1.058333,-1.5875 V 69.585276 L 73.554167,68.438889 71.613889,68.526939 69.85,69.85 66.410276,71.4375 65.351942,72.760276 63.5,74.524164 l 2.381391,-1.322775 1.058333,-1.322776 3.263054,-1.499446 1.763889,-1.146669 1.763889,-0.08805 0.529166,0.617503 -0.705555,1.587217 -0.705556,1.235005 0.705556,1.411111 -0.08834,2.645551 -2.822222,2.998893 4.586111,-2.646115 3.792502,-4.233333 3.880556,-5.908887 1.940278,-5.203331 0.176388,-3.616114 -0.881944,-1.852224 -1.852224,-0.176107 v 0 0 0 z"
         id="path207"
         inkscape:connector-curvature="0" />
      <path
         style="fill:#000000;fill-opacity:1;fill-rule:evenodd;stroke:none"
         d="m 82.020833,72.848611 0.529167,0.793891 -0.881944,1.587218 1.411111,1.675836 h 0.705555 l 1.940278,2.381391 4.14528,1.587217 0.08805,0.705556 -1.763889,0.08834 -0.793608,0.441113 -1.587783,-0.352778 -3.086664,0.352778 -3.880556,1.23444 -0.61722,0.441113 h 1.23444 l 2.116667,-0.793891 1.852224,-0.08805 1.675554,0.440831 2.469444,0.793891 1.323058,-0.529167 3.175,-0.08805 1.058333,0.352778 -0.352777,0.61722 -3.175,-0.176389 -2.028614,0.529167 -2.733886,-0.881945 -2.822223,-0.440831 -2.205002,1.058333 -1.411111,0.176107 -1.411111,-0.440831 -2.557498,0.176389 2.557498,0.705555 2.55778,0.705556 8.202224,0.441113 -0.352777,0.528885 -1.852225,0.352777 0.352778,0.882227 2.205002,-0.08834 2.910276,-0.176389 1.851942,0.176389 1.058333,0.705555 -0.352778,0.61722 -2.645551,-0.176107 -3.792502,0.969998 H 84.137497 80.874161 L 78.22861,90.399169 76.464724,90.134722 73.730556,89.340831 72.319444,88.9 h -1.940277 l -2.822223,0.176389 -1.499446,-0.352778 -0.08805,-1.058333 -3.086946,-0.969998 2.822222,-0.08834 -0.440831,-0.969997 5.026942,-1.499447 2.55778,-0.352778 -0.61722,-1.411111 2.733887,-2.733887 5.115278,-4.410004 1.146386,-1.322776 0.793891,-1.058333 v 0 0 0 z"
         id="path209"
         inkscape:connector-curvature="0" />
    </g>
    <text
       xml:space="preserve"
       style="font-style:normal;font-variant:normal;font-weight:bold;font-stretch:normal;font-size:25.39999962px;line-height:125%;font-family:'Liberation Sans';-inkscape-font-specification:'Liberation Sans, Bold';font-variant-ligatures:normal;font-variant-caps:normal;font-variant-numeric:normal;font-feature-settings:normal;text-align:start;letter-spacing:0px;word-spacing:0px;writing-mode:lr-tb;text-anchor:start;fill:#000000;fill-opacity:1;stroke:none;stroke-width:0.26458332px;stroke-linecap:butt;stroke-linejoin:miter;stroke-opacity:1"
       x="42.926796"
       y="114.85535"
       id="text4041"><tspan
         sodipodi:role="line"
         id="tspan4043"
         x="42.926796"
         y="114.85535">MSR 2017</tspan></text>
  </g>
</svg>
